<?xml version="1.0" encoding="UTF-8"?>
<svg width="68px" height="81px" viewBox="0 0 68 81" version="1.1" xmlns="http://www.w3.org/2000/svg" xmlns:xlink="http://www.w3.org/1999/xlink">
    <!-- Generator: Sketch 43.2 (39069) - http://www.bohemiancoding.com/sketch -->
    <title>Shape</title>
    <desc>Created with Sketch.</desc>
    <defs></defs>
    <g id="Page-1" stroke="none" stroke-width="1" fill="none" fill-rule="evenodd">
        <g id="Artboard" transform="translate(-131.000000, -95.000000)" fill-rule="nonzero" fill="#FFFFFF">
            <path d="M131.47767,96.9084211 C130.77767,98.1084211 130.87767,99.5084211 131.57767,100.708421 L131.67767,100.808421 L155.87767,134.708421 L155.87767,173.008421 C155.87767,174.008421 156.47767,174.908421 157.27767,175.308421 C157.57767,175.508421 157.97767,175.508421 158.37767,175.508421 C158.97767,175.508421 159.47767,175.308421 159.97767,174.908421 L172.27767,164.608421 C172.87767,164.108421 173.17767,163.408421 173.17767,162.708421 L173.17767,134.708421 L197.37767,100.808421 L197.47767,100.708421 C198.17767,99.5084211 198.27767,98.1084211 197.57767,96.9084211 C196.87767,95.7084211 195.67767,95.0084211 194.27767,95.0084211 L134.67767,95.0084211 C133.37767,94.9084211 132.07767,95.7084211 131.47767,96.9084211 Z" id="Shape"></path>
        </g>
    </g>
</svg>