<?xml version="1.0" encoding="UTF-8"?>
<svg width="68px" height="81px" viewBox="0 0 68 81" version="1.1" xmlns="http://www.w3.org/2000/svg" xmlns:xlink="http://www.w3.org/1999/xlink">
    <!-- Generator: Sketch 43.2 (39069) - http://www.bohemiancoding.com/sketch -->
    <title>Shape</title>
    <desc>Created with Sketch.</desc>
    <defs></defs>
    <g id="Page-1" stroke="none" stroke-width="1" fill="none" fill-rule="evenodd">
        <g id="Artboard" transform="translate(-131.000000, -95.000000)" stroke="#FFFFFF" stroke-width="4" fill-rule="nonzero">
            <path d="M195.854689,99.5029742 L195.846213,99.5114502 L195.749878,99.646399 L171.549878,133.546399 L171.17767,134.067799 L171.17767,134.708421 L171.17767,162.708421 C171.17767,162.84393 171.119363,162.97026 170.997301,163.071979 L158.693626,173.375048 C158.55809,173.482835 158.490926,173.508421 158.37767,173.508421 C158.270559,173.508421 158.198431,173.507794 158.148443,173.506507 C158.004704,173.419652 157.87767,173.206167 157.87767,173.008421 L157.87767,134.708421 L157.87767,134.067799 L157.505461,133.546399 L133.305461,99.646399 L133.209126,99.5114502 L133.20065,99.5029742 C132.928486,98.929603 132.936638,98.3766024 133.205227,97.9161632 L133.266524,97.8028483 C133.518572,97.2987517 134.070457,96.9676209 134.524277,97.0025301 L134.67767,97.0084211 L194.27767,97.0084211 C194.958609,97.0084211 195.504622,97.3238954 195.850112,97.9161632 C196.118701,98.3766024 196.126853,98.929603 195.854689,99.5029742 Z" id="Shape"></path>
        </g>
    </g>
</svg>