<?xml version="1.0" encoding="UTF-8" standalone="no"?>
<svg width="16px" height="19px" viewBox="0 0 16 19" version="1.1" xmlns="http://www.w3.org/2000/svg" xmlns:xlink="http://www.w3.org/1999/xlink" xmlns:sketch="http://www.bohemiancoding.com/sketch/ns">
    <!-- Generator: Sketch 3.3.1 (12002) - http://www.bohemiancoding.com/sketch -->
    <title>Shape</title>
    <desc>Created with Sketch.</desc>
    <defs></defs>
    <g id="Dashboard-1" stroke="none" stroke-width="1" fill="none" fill-rule="evenodd" sketch:type="MSPage">
        <g id="Managment-dashboad" sketch:type="MSArtboardGroup" transform="translate(-653.000000, -1387.000000)" fill-opacity="0.758378623" fill="#FFFFFF">
            <path d="M653.377714,1389.08383 L658.850955,1389.08383 L658.850955,1387.65973 L663.526757,1387.65973 L663.526757,1389.08383 L669,1389.08383 L669,1391.23891 L653.377714,1391.23891 L653.377714,1389.08383 Z M663.058722,1388.16014 L659.395372,1388.16014 L659.395372,1389.09625 L663.058722,1389.09625 L663.058722,1388.16014 Z M654.806711,1392.15249 L667.835383,1392.15249 L666.286708,1405.65973 L656.355386,1405.65973 L654.806711,1392.15249 Z M665.807894,1393.65397 L664.511318,1393.65397 L663.752884,1404.62032 L664.741221,1404.62032 L665.807894,1393.65397 Z M661.901528,1393.66337 L660.604951,1393.66337 L660.775191,1404.62748 L661.763528,1404.62748 L661.901528,1393.66337 Z M657.995162,1393.7502 L656.698585,1393.7502 L657.797499,1404.69367 L658.785836,1404.69367 L657.995162,1393.7502 Z" id="Shape" sketch:type="MSShapeGroup"></path>
        </g>
    </g>
</svg>